PathFileType	4	(X/Y/Z)	C:/Users/beibeiliu/ov580/test_trc/User3\sequence.24_training_dense_right.trc
DataRate	CameraRate	NumFrames	NumMarkers	Units	OrigDataRate	OrigDataStartFrame	OrigNumFrames
120	120	14	19	mm	120	1	275
Frame#	Time	ThumbCMC			ThumbMCP			ThumbIP			ThumbTip			IndexMCP			IndexPIP			IndexTip			MiddleMCP			MiddlePIP			MiddleTip			RingMCP			RingPIP			RingTip			PinkyMCP			PinkyPIP			PinkyTip			BackHand1			BackHand2			BackHand3	
		X0	Y0	Z0	X1	Y1	Z1	X2	Y2	Z2	X3	Y3	Z3	X4	Y4	Z4	X5	Y5	Z5	X6	Y6	Z6	X7	Y7	Z7	X8	Y8	Z8	X9	Y9	Z9	X10	Y10	Z10	X11	Y11	Z11	X12	Y12	Z12	X13	Y13	Z13	X14	Y14	Z14	X15	Y15	Z15	X16	Y16	Z16	X17	Y17	Z17	X18	Y18	Z18	
0	0	149.681	-25.937	26.5732	126.85	-35.4573	1.64995	117.142	-45.262	-26.0644	114.534	-55.2227	-46.8027	162.753	-15.0386	-50.9401	156.265	-25.7429	-80.577	147.925	-37.9369	-99.4363	188.397	-19.2773	-57.0321	181.224	-27.8884	-85.0817	177.696	-48.5633	-112.029	202.596	-27.9532	-50.0551	201.751	-35.8554	-76.8581	200.697	-53.1153	-100.851	218.971	-39.3478	-35.2239	223.445	-47.9869	-58.1955	224.447	-62.229	-76.7502	207.185	-14.6362	1.38499	209.032	-10.7294	32.4631	176.788	-4.15049	17.5408	
1	0.00833333	147.421	-25.5301	21.6197	130.591	-35.9327	3.07057	118.525	-45.2095	-27.1032	110.833	-56.0686	-44.7894	162.457	-15.9308	-50.8662	154.258	-24.0987	-80.7241	151.103	-41.7125	-101.642	184.525	-18.4398	-56.0027	179.857	-29.422	-88.6598	176.549	-49.2857	-113.811	199.954	-27.3299	-52.2146	205.848	-36.4159	-74.0422	198.982	-52.6014	-100.339	217.851	-39.6714	-34.4128	222.842	-48.2373	-59.3783	218.317	-62.5947	-78.9778	206.517	-15.3012	1.37631	208.818	-12.033	31.8822	176.181	-3.18661	14.2534	
2	0.0166667	146.244	-25.0804	26.4803	130.961	-35.958	0.288152	116.659	-44.9292	-26.5104	114.201	-55.2804	-46.1647	163.013	-15.8352	-51.7118	153.906	-22.2993	-77.7739	152.054	-39.5892	-99.6863	184.675	-18.8623	-61.3884	179.877	-28.8647	-88.6457	176.755	-50.7342	-114.731	203.001	-27.997	-51.1893	202.072	-35.1492	-74.2374	199.849	-52.8577	-99.0438	218.228	-38.3545	-36.1232	222.931	-48.302	-56.9249	220.238	-60.6553	-76.3194	207.573	-15.1408	-0.0634107	212.036	-11.8326	28.7904	178.402	-3.03889	15.3215	
3	0.025	144.981	-24.6079	22.5542	127.717	-35.2958	1.90153	117.123	-44.9054	-28.6966	112.154	-56.6726	-48.2144	160.991	-15.125	-50.9439	153.58	-25.2445	-82.1921	152.704	-41.7895	-101.565	188.921	-19.9477	-60.0249	183.938	-31.4105	-90.0755	179.468	-52.0188	-113.093	201.796	-26.8737	-53.444	203.299	-36.7713	-78.9002	198.646	-53.4725	-100.014	218.287	-38.9451	-35.3701	222.374	-47.5611	-55.6196	220.45	-64.283	-79.6573	205.26	-12.852	-0.81836	209.878	-13.4867	30.946	174.441	-3.25908	10.9314	
4	0.0333333	143.636	-23.8758	20.3653	128.523	-35.5191	0.0490803	116.366	-45.135	-28.1567	113.463	-57.5117	-49.5426	162.46	-16.2986	-55.5438	153.587	-23.7367	-80.6554	152.892	-42.3881	-101.336	184.515	-18.5114	-57.4901	181.848	-31.9538	-90.3647	177.039	-50.4339	-113.021	201.189	-28.0096	-48.9575	200.362	-36.9042	-79.7493	198.849	-54.2304	-102.262	219.623	-40.3989	-33.3094	222.138	-48.9347	-60.627	219.986	-65.6928	-79.41	205.358	-14.0256	1.83312	212.566	-12.3115	30.2585	179.165	-4.79579	14.0186	
5	0.0416667	144.052	-25.1897	18.9531	130.607	-36.587	-0.946077	118.233	-46.3429	-24.3499	113.776	-57.2455	-46.5242	159.218	-16.5819	-54.2417	157.344	-26.7765	-82.58	146.769	-43.3843	-104.108	186.692	-19.6234	-57.9529	184.627	-30.591	-87.8024	176.769	-49.9731	-111.754	200.049	-27.6128	-52.6981	203.94	-36.2395	-77.1829	197.715	-52.2665	-98.5719	220.921	-40.1262	-37.0117	221.322	-46.7837	-57.4466	221.814	-65.9104	-81.3108	208.955	-15.874	-1.0415	209.164	-12.7257	27.2589	178.348	-5.04328	9.80604	
6	0.05	146.226	-26.4622	20.0451	126.856	-35.8251	0.182806	113.866	-45.8058	-27.5894	109.948	-57.8682	-46.8318	160.478	-16.9264	-54.3072	152.234	-25.7556	-82.8153	152.299	-43.4357	-102.859	183.859	-18.7416	-59.1707	181.886	-30.4389	-87.6394	176.825	-51.6613	-112.936	204.135	-28.1572	-52.6193	204.857	-36.9125	-77.0666	201.332	-52.9908	-98.8277	218.246	-39.5352	-34.1852	224.176	-50.023	-59.1953	221.229	-66.5481	-80.8889	205.6	-13.5881	1.82646	206.684	-12.2919	29.6749	175.809	-5.17136	10.7116	
7	0.0583333	145.013	-26.549	24.3279	127.419	-36.1372	-0.114284	115.091	-45.9337	-26.3339	110.759	-57.2322	-48.7989	158.768	-15.8297	-54.776	155.244	-27.8649	-83.9342	149.757	-44.7374	-105.004	185.725	-20.6158	-60.8304	181.933	-31.7307	-88.8751	179.262	-54.9328	-116.005	204.543	-29.57	-53.3359	205.643	-38.2439	-78.1621	198.852	-51.7968	-99.2116	218.848	-39.4551	-33.0365	222.35	-47.1307	-56.3056	223.613	-64.1297	-79.7461	205.365	-12.6336	-2.67606	207.712	-11.6886	31.3781	173.833	-3.87714	13.617	
8	0.0666667	148.228	-27.3644	19.247	127.85	-36.9337	0.36177	117.372	-46.4094	-24.2817	111.005	-58.1815	-46.1192	160.893	-17.5126	-55.8549	154.231	-26.0847	-83.1203	151.564	-42.0644	-101.736	186.708	-20.3874	-59.7826	182.693	-33.4438	-90.8336	177.233	-50.6441	-111.636	201.889	-27.9652	-49.6313	202.794	-36.6295	-75.7052	200.088	-54.2572	-101.804	220.512	-39.7319	-35.2467	220.963	-48.3978	-58.9359	224.797	-64.8831	-76.7985	209.971	-14.0696	-1.32556	211.368	-13.3323	27.9921	177.63	-6.02699	14.2203	
9	0.075	146.124	-26.1831	23.8546	128.051	-37.8716	-0.502955	116.395	-46.5779	-24.6763	111.526	-57.8863	-48.2927	163.423	-17.0109	-55.7811	153.238	-24.3608	-79.8906	150.415	-44.3726	-103.115	183.843	-19.1212	-62.5139	182.402	-32.5679	-90.7523	176.419	-49.7188	-113.024	203.218	-28.0256	-49.8863	202.106	-36.0048	-75.805	199.119	-52.7504	-100.206	223.067	-40.2722	-35.495	223.097	-48.128	-58.6528	221.429	-61.9155	-79.0898	204.789	-15.2819	1.12295	211.254	-14.1078	26.8693	180.086	-4.6733	14.7898	
10	0.0833333	149.038	-26.1485	20.3169	126.735	-36.582	-3.08563	114.517	-47.7097	-27.1361	113.593	-59.1735	-49.6042	161.795	-15.8368	-52.3634	153.417	-26.3276	-83.551	154.188	-42.2946	-102.114	186.685	-20.4872	-61.5172	185.921	-30.6677	-87.7147	179.047	-51.0206	-112.83	204.979	-28.5508	-53.5372	204.071	-36.1829	-76.7852	200.26	-52.8744	-100.028	223.866	-41.186	-35.463	223.506	-48.0423	-58.2843	222.113	-64.1507	-81.4039	205.641	-14.8417	2.74427	210.58	-12.0173	30.7818	178.882	-6.65505	14.957	
11	0.0916667	147.59	-26.8372	24.0761	132.266	-37.0434	-1.4254	117.225	-47.7354	-30.958	112.852	-59.4481	-52.0709	160.621	-16.9545	-55.3839	156.571	-27.0684	-83.5289	152.2	-45.4013	-103.879	184.576	-19.6716	-58.7632	184.371	-31.3452	-89.578	176.16	-50.2909	-114.297	204.702	-28.1358	-52.9918	205.308	-37.1914	-76.7278	198.897	-54.9856	-101.342	219.616	-39.4649	-38.9477	224.644	-49.6811	-61.2241	224.433	-65.4143	-79.6584	208.302	-15.337	-2.74021	210.033	-13.0001	28.7862	175.395	-5.70529	10.2648	
12	0.1	145.464	-26.1115	22.5659	131.23	-37.2679	-2.2	118.255	-47.7605	-25.9934	113.413	-58.3553	-48.0655	160.411	-16.3963	-58.0181	157.063	-27.6052	-83.4479	149.771	-42.3163	-101.135	184.415	-20.1796	-63.9931	185.561	-34.4729	-91.2144	178.755	-52.6207	-113.825	203.501	-28.6261	-54.3038	206.222	-39.5015	-79.8559	197.901	-54.2114	-101.7	222.499	-40.1772	-38.4066	223.171	-49.0144	-59.817	221.794	-64.342	-79.7275	207.242	-13.2322	-1.63545	209.775	-14.0157	27.8033	176.554	-3.74995	13.5729	
13	0.108333	149.479	-27.1411	19.5544	130.073	-38.0649	-2.89419	119.63	-47.1432	-27.8426	112.827	-58.693	-46.6334	164.009	-18.124	-54.9671	158.289	-27.6585	-83.2827	150.768	-46.0719	-105.5	189.527	-20.9906	-59.5485	185.812	-31.9057	-88.0279	179.454	-54.0428	-115.967	206.339	-29.8049	-55.1946	201.212	-37.0566	-77.5548	201.134	-53.0399	-98.8132	223.79	-41.2102	-34.8275	224.598	-51.0952	-60.6876	221.69	-62.2508	-77.5622	206.67	-14.5662	1.54288	210.151	-13.8152	26.7796	175.963	-3.79389	13.6275	
